<mxfile host="app.diagrams.net" modified="2023-07-03T12:42:07.459Z" agent="Mozilla/5.0 (Windows NT 10.0; Win64; x64) AppleWebKit/537.36 (KHTML, like Gecko) Chrome/114.0.0.0 Safari/537.36" etag="c9L_8zK3PZL2CWfoGtQj" version="21.5.2" type="github">
  <diagram name="Strona-1" id="LIcGz9p34mj6lom9c27u">
    <mxGraphModel dx="989" dy="612" grid="1" gridSize="10" guides="1" tooltips="1" connect="1" arrows="1" fold="1" page="1" pageScale="1" pageWidth="827" pageHeight="1169" math="0" shadow="0">
      <root>
        <mxCell id="0" />
        <mxCell id="1" parent="0" />
        <mxCell id="68Hwct-F0d1kTlMrPAvt-4" style="edgeStyle=orthogonalEdgeStyle;rounded=0;orthogonalLoop=1;jettySize=auto;html=1;entryX=0;entryY=0.5;entryDx=0;entryDy=0;" edge="1" parent="1" source="68Hwct-F0d1kTlMrPAvt-1" target="68Hwct-F0d1kTlMrPAvt-2">
          <mxGeometry relative="1" as="geometry" />
        </mxCell>
        <mxCell id="68Hwct-F0d1kTlMrPAvt-1" value="1. Create CA and TLS" style="rounded=0;whiteSpace=wrap;html=1;fillColor=#ffe6cc;strokeColor=#d79b00;" vertex="1" parent="1">
          <mxGeometry x="40" y="80" width="130" height="60" as="geometry" />
        </mxCell>
        <mxCell id="68Hwct-F0d1kTlMrPAvt-5" style="edgeStyle=orthogonalEdgeStyle;rounded=0;orthogonalLoop=1;jettySize=auto;html=1;exitX=1;exitY=0.5;exitDx=0;exitDy=0;" edge="1" parent="1" source="68Hwct-F0d1kTlMrPAvt-2" target="68Hwct-F0d1kTlMrPAvt-6">
          <mxGeometry relative="1" as="geometry">
            <mxPoint x="420" y="125.24137931034488" as="targetPoint" />
          </mxGeometry>
        </mxCell>
        <mxCell id="68Hwct-F0d1kTlMrPAvt-2" value="CA - Certificate Authentication&lt;br&gt;&lt;br&gt;TLS -&amp;nbsp;Transport Layer Security" style="rounded=0;whiteSpace=wrap;html=1;" vertex="1" parent="1">
          <mxGeometry x="210" y="65" width="100" height="90" as="geometry" />
        </mxCell>
        <mxCell id="68Hwct-F0d1kTlMrPAvt-8" style="edgeStyle=orthogonalEdgeStyle;rounded=0;orthogonalLoop=1;jettySize=auto;html=1;exitX=1;exitY=0.5;exitDx=0;exitDy=0;entryX=0;entryY=0.5;entryDx=0;entryDy=0;" edge="1" parent="1" source="68Hwct-F0d1kTlMrPAvt-6" target="68Hwct-F0d1kTlMrPAvt-7">
          <mxGeometry relative="1" as="geometry" />
        </mxCell>
        <mxCell id="68Hwct-F0d1kTlMrPAvt-6" value="Works like password but is much more secure" style="rounded=0;whiteSpace=wrap;html=1;" vertex="1" parent="1">
          <mxGeometry x="353" y="80.00137931034489" width="120" height="60" as="geometry" />
        </mxCell>
        <mxCell id="68Hwct-F0d1kTlMrPAvt-17" style="edgeStyle=orthogonalEdgeStyle;rounded=0;orthogonalLoop=1;jettySize=auto;html=1;entryX=0;entryY=0.5;entryDx=0;entryDy=0;" edge="1" parent="1" source="68Hwct-F0d1kTlMrPAvt-7" target="68Hwct-F0d1kTlMrPAvt-16">
          <mxGeometry relative="1" as="geometry" />
        </mxCell>
        <mxCell id="68Hwct-F0d1kTlMrPAvt-7" value="Create a CA and based on that create a public and private key with CA provided, for every machine" style="rounded=0;whiteSpace=wrap;html=1;" vertex="1" parent="1">
          <mxGeometry x="520" y="70" width="150" height="80" as="geometry" />
        </mxCell>
        <mxCell id="68Hwct-F0d1kTlMrPAvt-11" style="edgeStyle=orthogonalEdgeStyle;rounded=0;orthogonalLoop=1;jettySize=auto;html=1;exitX=1;exitY=0.5;exitDx=0;exitDy=0;entryX=0;entryY=0.5;entryDx=0;entryDy=0;" edge="1" parent="1" source="68Hwct-F0d1kTlMrPAvt-9" target="68Hwct-F0d1kTlMrPAvt-10">
          <mxGeometry relative="1" as="geometry" />
        </mxCell>
        <mxCell id="68Hwct-F0d1kTlMrPAvt-9" value="2. Create kubeconfig" style="rounded=0;whiteSpace=wrap;html=1;fillColor=#ffe6cc;strokeColor=#d79b00;" vertex="1" parent="1">
          <mxGeometry x="40" y="230" width="130" height="60" as="geometry" />
        </mxCell>
        <mxCell id="68Hwct-F0d1kTlMrPAvt-12" style="edgeStyle=orthogonalEdgeStyle;rounded=0;orthogonalLoop=1;jettySize=auto;html=1;" edge="1" parent="1" source="68Hwct-F0d1kTlMrPAvt-10">
          <mxGeometry relative="1" as="geometry">
            <mxPoint x="429.9999999999998" y="259.9999999999999" as="targetPoint" />
          </mxGeometry>
        </mxCell>
        <mxCell id="68Hwct-F0d1kTlMrPAvt-10" value="Kubeconfig is a file that stores information about clusters, users, namespaces and authentication mechanism" style="rounded=0;whiteSpace=wrap;html=1;" vertex="1" parent="1">
          <mxGeometry x="220" y="220" width="160" height="80" as="geometry" />
        </mxCell>
        <mxCell id="68Hwct-F0d1kTlMrPAvt-24" style="edgeStyle=orthogonalEdgeStyle;rounded=0;orthogonalLoop=1;jettySize=auto;html=1;entryX=0;entryY=0.5;entryDx=0;entryDy=0;" edge="1" parent="1" source="68Hwct-F0d1kTlMrPAvt-14" target="68Hwct-F0d1kTlMrPAvt-23">
          <mxGeometry relative="1" as="geometry">
            <Array as="points">
              <mxPoint x="545" y="360" />
              <mxPoint x="20" y="360" />
              <mxPoint x="20" y="440" />
            </Array>
          </mxGeometry>
        </mxCell>
        <mxCell id="68Hwct-F0d1kTlMrPAvt-14" value="Kubeconfig contains:&lt;br&gt;1. The location of a cluster you want to connect to&lt;br&gt;2. What user you want to authenticate as&lt;br&gt;3. Data needed in order to authenticate, such as tokens or client certificates" style="rounded=0;whiteSpace=wrap;html=1;" vertex="1" parent="1">
          <mxGeometry x="430" y="220" width="230" height="100" as="geometry" />
        </mxCell>
        <mxCell id="68Hwct-F0d1kTlMrPAvt-22" style="edgeStyle=orthogonalEdgeStyle;rounded=0;orthogonalLoop=1;jettySize=auto;html=1;exitX=0.5;exitY=1;exitDx=0;exitDy=0;entryX=0;entryY=0.5;entryDx=0;entryDy=0;" edge="1" parent="1" source="68Hwct-F0d1kTlMrPAvt-16" target="68Hwct-F0d1kTlMrPAvt-9">
          <mxGeometry relative="1" as="geometry">
            <mxPoint x="10" y="260" as="targetPoint" />
          </mxGeometry>
        </mxCell>
        <mxCell id="68Hwct-F0d1kTlMrPAvt-16" value="Copy keys to their coresponding machines" style="rounded=0;whiteSpace=wrap;html=1;" vertex="1" parent="1">
          <mxGeometry x="700" y="80" width="120" height="60" as="geometry" />
        </mxCell>
        <mxCell id="68Hwct-F0d1kTlMrPAvt-27" style="edgeStyle=orthogonalEdgeStyle;rounded=0;orthogonalLoop=1;jettySize=auto;html=1;exitX=1;exitY=0.5;exitDx=0;exitDy=0;" edge="1" parent="1" source="68Hwct-F0d1kTlMrPAvt-23" target="68Hwct-F0d1kTlMrPAvt-26">
          <mxGeometry relative="1" as="geometry" />
        </mxCell>
        <mxCell id="68Hwct-F0d1kTlMrPAvt-23" value="3. Distribute kubeconfig files" style="rounded=0;whiteSpace=wrap;html=1;fillColor=#ffe6cc;strokeColor=#d79b00;" vertex="1" parent="1">
          <mxGeometry x="50" y="410" width="130" height="60" as="geometry" />
        </mxCell>
        <mxCell id="68Hwct-F0d1kTlMrPAvt-28" style="edgeStyle=orthogonalEdgeStyle;rounded=0;orthogonalLoop=1;jettySize=auto;html=1;" edge="1" parent="1" source="68Hwct-F0d1kTlMrPAvt-26">
          <mxGeometry relative="1" as="geometry">
            <mxPoint x="390" y="440" as="targetPoint" />
          </mxGeometry>
        </mxCell>
        <mxCell id="68Hwct-F0d1kTlMrPAvt-26" value="Copy kubeconfig files to the coresponding machines" style="rounded=0;whiteSpace=wrap;html=1;" vertex="1" parent="1">
          <mxGeometry x="240" y="410" width="120" height="60" as="geometry" />
        </mxCell>
        <mxCell id="68Hwct-F0d1kTlMrPAvt-30" style="edgeStyle=orthogonalEdgeStyle;rounded=0;orthogonalLoop=1;jettySize=auto;html=1;" edge="1" parent="1" source="68Hwct-F0d1kTlMrPAvt-29">
          <mxGeometry relative="1" as="geometry">
            <mxPoint x="590" y="440" as="targetPoint" />
          </mxGeometry>
        </mxCell>
        <mxCell id="68Hwct-F0d1kTlMrPAvt-29" value="A) Worker node should have:&lt;br&gt;1. kube-proxy.kubeconfig&lt;br&gt;2. kubelet-name.kubeconfig" style="rounded=0;whiteSpace=wrap;html=1;" vertex="1" parent="1">
          <mxGeometry x="390" y="400" width="170" height="80" as="geometry" />
        </mxCell>
        <mxCell id="68Hwct-F0d1kTlMrPAvt-34" style="edgeStyle=orthogonalEdgeStyle;rounded=0;orthogonalLoop=1;jettySize=auto;html=1;exitX=1;exitY=0.5;exitDx=0;exitDy=0;entryX=0;entryY=0.5;entryDx=0;entryDy=0;" edge="1" parent="1" source="68Hwct-F0d1kTlMrPAvt-31" target="68Hwct-F0d1kTlMrPAvt-33">
          <mxGeometry relative="1" as="geometry" />
        </mxCell>
        <mxCell id="68Hwct-F0d1kTlMrPAvt-31" value="B) Controller node should have:&lt;br&gt;1. kube-controller-manager.kubeconfig&lt;br&gt;2. admin.kubeconfig&lt;br&gt;3. kube-scheduler.kubeconfig" style="rounded=0;whiteSpace=wrap;html=1;" vertex="1" parent="1">
          <mxGeometry x="590" y="401" width="220" height="90" as="geometry" />
        </mxCell>
        <mxCell id="68Hwct-F0d1kTlMrPAvt-33" value="4. Create Data Encryption Config and Key" style="rounded=0;whiteSpace=wrap;html=1;fillColor=#ffe6cc;strokeColor=#d79b00;" vertex="1" parent="1">
          <mxGeometry x="50" y="540" width="130" height="60" as="geometry" />
        </mxCell>
      </root>
    </mxGraphModel>
  </diagram>
</mxfile>
